<svg xmlns="http://www.w3.org/2000/svg" viewBox="0 0 192 192" width="192" height="192">
  <rect width="192" height="192" rx="38" fill="#1C1C1E"/>
  <rect x="28" y="28" width="136" height="48" rx="10" fill="#fff" opacity="0.9"/>
  <rect x="28" y="94" width="28" height="28" rx="6" fill="#A5A5A5"/>
  <rect x="66" y="94" width="28" height="28" rx="6" fill="#A5A5A5"/>
  <rect x="104" y="94" width="28" height="28" rx="6" fill="#A5A5A5"/>
  <rect x="142" y="94" width="28" height="28" rx="6" fill="#FF9500"/>
  <rect x="28" y="130" width="28" height="28" rx="6" fill="#333"/>
  <rect x="66" y="130" width="28" height="28" rx="6" fill="#333"/>
  <rect x="104" y="130" width="28" height="28" rx="6" fill="#333"/>
  <rect x="142" y="130" width="28" height="28" rx="6" fill="#FF9500"/>
  <rect x="28" y="166" width="28" height="18" rx="5" fill="#333"/>
  <rect x="66" y="166" width="28" height="18" rx="5" fill="#333"/>
  <rect x="104" y="166" width="28" height="18" rx="5" fill="#333"/>
  <rect x="142" y="166" width="28" height="18" rx="5" fill="#FF9500"/>
</svg>