<svg xmlns="http://www.w3.org/2000/svg" viewBox="0 0 512 512" width="512" height="512">
  <rect width="512" height="512" rx="100" fill="#1C1C1E"/>
  <rect x="74" y="74" width="364" height="128" rx="24" fill="#fff" opacity="0.9"/>
  <rect x="74" y="244" width="74" height="74" rx="16" fill="#A5A5A5"/>
  <rect x="172" y="244" width="74" height="74" rx="16" fill="#A5A5A5"/>
  <rect x="270" y="244" width="74" height="74" rx="16" fill="#A5A5A5"/>
  <rect x="368" y="244" width="70" height="74" rx="16" fill="#FF9500"/>
  <rect x="74" y="334" width="74" height="74" rx="16" fill="#333"/>
  <rect x="172" y="334" width="74" height="74" rx="16" fill="#333"/>
  <rect x="270" y="334" width="74" height="74" rx="16" fill="#333"/>
  <rect x="368" y="334" width="70" height="74" rx="16" fill="#FF9500"/>
  <rect x="74" y="424" width="172" height="64" rx="32" fill="#333"/>
  <rect x="270" y="424" width="74" height="64" rx="16" fill="#333"/>
  <rect x="368" y="424" width="70" height="64" rx="16" fill="#FF9500"/>
</svg>